<svg id="Layer_1" data-name="Layer 1" xmlns="http://www.w3.org/2000/svg" xmlns:xlink="http://www.w3.org/1999/xlink" viewBox="0 0 409.93 408.41"><defs><style>.cls-1,.cls-4{fill:none;}.cls-2{fill:#e52321;}.cls-3{clip-path:url(#clip-path);}.cls-4{stroke:#e52321;stroke-width:11px;}.cls-5{fill:#fff;}</style><clipPath id="clip-path" transform="translate(-95.43 -212.04)"><rect class="cls-1" x="-11.09" y="189.15" width="669.91" height="465.53"/></clipPath></defs><title>3</title><polygon class="cls-2" points="310.38 209.88 146.49 115.26 146.49 304.5 310.38 209.88"/><g class="cls-3"><path class="cls-4" d="M301.16,614.94c109.74,0,198.7-89,198.7-198.7s-89-198.7-198.7-198.7-198.71,89-198.71,198.7S191.41,614.94,301.16,614.94Z" transform="translate(-95.43 -212.04)"/></g><rect class="cls-5" x="395.18" y="249.96" width="76.07" height="52.99" transform="translate(-164.02 175.26) rotate(-45)"/><rect class="cls-5" x="117.42" y="527.72" width="76.07" height="52.99" transform="translate(-441.78 60.21) rotate(-45)"/><polygon class="cls-2" points="405.96 90.78 349.91 68.52 358.66 128.19 405.96 90.78"/><polygon class="cls-2" points="54.14 332.54 50.08 272.37 0 305.98 54.14 332.54"/></svg>